<?xml version="1.0" standalone="no"?>
<!DOCTYPE svg PUBLIC "-//W3C//DTD SVG 20010904//EN"
 "http://www.w3.org/TR/2001/REC-SVG-20010904/DTD/svg10.dtd">
<svg version="1.0" xmlns="http://www.w3.org/2000/svg"
 width="137.000000pt" height="76.000000pt" viewBox="0 0 137.000000 76.000000"
 preserveAspectRatio="xMidYMid meet">
<metadata>
Created by potrace 1.16, written by Peter Selinger 2001-2019
</metadata>
<g transform="translate(0.000000,76.000000) scale(0.100000,-0.100000)"
fill="#000000" stroke="none">
<path d="M0 701 l0 -60 43 -3 42 -3 3 -235 c1 -129 0 -245 -3 -258 -4 -18 -12
-22 -45 -22 l-40 0 0 -61 0 -60 228 3 c210 3 230 5 267 25 79 42 115 105 115
200 0 65 -29 135 -66 160 l-24 15 25 29 c29 35 39 81 33 154 -5 65 -40 115
-101 148 -39 20 -57 22 -259 25 l-218 3 0 -60z m367 -86 c25 -18 34 -57 21
-101 -7 -27 -16 -35 -46 -44 -72 -20 -72 -20 -72 75 l0 85 38 0 c21 0 47 -7
59 -15z m35 -315 c22 -27 25 -117 4 -145 -10 -13 -30 -20 -75 -23 l-61 -4 0
102 0 102 57 -4 c43 -4 61 -10 75 -28z"/>
<path d="M620 701 l0 -60 43 -3 42 -3 0 -255 0 -255 -42 -3 -43 -3 0 -60 0
-59 165 0 165 0 0 59 0 60 -42 3 -43 3 -2 155 -3 155 143 -217 142 -218 68 0
67 0 0 304 c0 167 3 311 6 320 4 11 19 16 45 16 l39 0 0 60 0 60 -160 0 -160
0 0 -60 0 -60 40 0 c24 0 43 -5 46 -13 2 -7 3 -73 2 -147 l-3 -134 -133 207
-134 207 -124 0 -124 0 0 -59z"/>
</g>
</svg>
