<?xml version="1.0" standalone="no"?>
<!DOCTYPE svg PUBLIC "-//W3C//DTD SVG 20010904//EN"
 "http://www.w3.org/TR/2001/REC-SVG-20010904/DTD/svg10.dtd">
<svg version="1.0" xmlns="http://www.w3.org/2000/svg"
 width="772.000000pt" height="682.000000pt" viewBox="0 0 772.000000 682.000000"
 preserveAspectRatio="xMidYMid meet">
<metadata>
Created by potrace 1.16, written by Peter Selinger 2001-2019
</metadata>
<g transform="translate(0.000000,682.000000) scale(0.100000,-0.100000)"
fill="#000000" stroke="none">
<path d="M3075 6810 c-44 -5 -140 -19 -213 -30 -834 -133 -1596 -578 -2127
-1245 -339 -425 -575 -941 -678 -1480 -48 -246 -52 -303 -52 -655 1 -291 4
-353 22 -470 60 -383 156 -694 313 -1015 524 -1073 1551 -1785 2749 -1905 132
-13 508 -13 642 0 1350 131 2485 1029 2918 2310 117 346 173 689 175 1071 l1
206 448 214 c246 117 447 217 447 221 0 8 -2404 1726 -2427 1735 -8 3 -13 -3
-13 -18 0 -12 -56 -680 -125 -1483 -69 -804 -124 -1476 -123 -1493 l3 -33 440
211 c242 116 472 226 510 243 l70 33 -3 -41 c-32 -430 -196 -889 -453 -1266
-446 -655 -1163 -1075 -1959 -1149 -983 -91 -1966 404 -2485 1253 -587 959
-512 2161 191 3046 86 108 293 315 404 403 372 298 812 487 1310 564 175 27
558 24 739 -5 282 -46 517 -120 773 -244 93 -45 170 -79 171 -77 2 2 88 150
191 329 171 298 185 326 169 338 -10 7 -79 44 -153 81 -328 166 -665 273
-1045 332 -116 18 -193 22 -445 24 -168 2 -341 -1 -385 -5z"/>
</g>
</svg>
