<?xml version="1.0" standalone="no"?>
<!DOCTYPE svg PUBLIC "-//W3C//DTD SVG 20010904//EN"
 "http://www.w3.org/TR/2001/REC-SVG-20010904/DTD/svg10.dtd">
<svg version="1.0" xmlns="http://www.w3.org/2000/svg"
 width="774.000000pt" height="599.000000pt" viewBox="0 0 774.000000 599.000000"
 preserveAspectRatio="xMidYMid meet">
<metadata>
Created by potrace 1.16, written by Peter Selinger 2001-2019
</metadata>
<g transform="translate(0.000000,599.000000) scale(0.100000,-0.100000)"
fill="#000000" stroke="none">
<path d="M2920 5211 c-228 -39 -488 -227 -653 -471 -9 -14 -30 -43 -47 -65
-16 -22 -39 -58 -50 -80 -12 -22 -32 -58 -45 -80 -13 -22 -43 -78 -65 -125
-23 -47 -52 -108 -66 -135 -13 -28 -24 -57 -24 -65 0 -9 -7 -25 -14 -36 -8
-12 -20 -43 -27 -70 -6 -27 -17 -59 -25 -70 -7 -12 -19 -46 -27 -77 -8 -31
-25 -70 -37 -86 l-21 -31 -209 0 c-115 0 -220 -4 -233 -9 -16 -6 -29 -22 -35
-43 -5 -18 -15 -51 -22 -74 -9 -31 -9 -46 -1 -63 11 -20 18 -21 204 -22 106
-1 203 -4 217 -8 37 -10 34 -35 -27 -261 -8 -30 -21 -89 -29 -130 -8 -41 -21
-93 -29 -115 -8 -22 -19 -70 -25 -106 -5 -37 -16 -82 -24 -100 -8 -19 -19 -66
-25 -105 -6 -39 -17 -86 -25 -105 -7 -19 -17 -56 -20 -84 -4 -27 -16 -77 -26
-110 -10 -33 -21 -80 -25 -105 -4 -25 -15 -72 -25 -105 -10 -33 -21 -82 -25
-108 -3 -26 -13 -64 -21 -83 -8 -20 -20 -61 -25 -92 -6 -32 -19 -81 -30 -110
-10 -29 -19 -62 -19 -73 0 -11 -12 -57 -26 -102 -14 -45 -37 -120 -50 -167
-14 -47 -32 -105 -41 -130 -8 -25 -21 -67 -29 -94 -7 -27 -23 -68 -34 -91 -11
-23 -20 -50 -20 -61 0 -10 -12 -41 -25 -69 -14 -27 -25 -57 -25 -65 0 -8 -12
-33 -25 -55 -14 -22 -25 -46 -25 -53 0 -8 -8 -26 -19 -40 -10 -15 -22 -37 -26
-50 -12 -39 -80 -135 -131 -184 -62 -60 -118 -98 -169 -114 -22 -7 -58 -20
-80 -28 -46 -17 -157 -21 -186 -6 -34 19 -24 61 26 110 43 42 45 47 45 100 0
49 -4 60 -29 84 -43 41 -114 59 -176 45 -74 -17 -100 -34 -145 -90 -38 -48
-40 -55 -40 -119 0 -64 2 -71 39 -118 56 -70 139 -110 254 -123 111 -11 251 2
306 30 22 12 45 21 50 21 21 0 74 28 157 85 146 99 324 301 415 470 12 22 28
47 35 56 21 23 174 331 174 349 0 9 4 20 9 25 14 14 70 150 86 208 7 26 18 53
23 60 6 7 17 37 25 67 24 86 57 181 78 226 10 23 19 49 19 58 0 9 7 33 16 54
9 20 25 71 35 112 9 41 24 95 32 120 8 25 19 63 25 85 28 106 45 165 62 220
10 33 24 89 30 125 7 35 16 72 21 82 5 9 16 53 24 97 9 44 22 95 29 113 8 18
17 58 21 88 4 30 15 75 25 100 10 25 21 70 25 100 4 30 14 71 22 90 8 19 19
59 24 89 14 86 11 86 232 89 211 4 216 5 243 69 17 40 18 115 2 131 -8 8 -65
12 -189 12 -129 0 -180 3 -185 12 -13 21 -4 78 21 139 14 32 25 69 25 81 0 13
9 41 19 64 10 23 24 65 30 95 7 30 18 63 25 74 7 11 18 43 25 70 7 28 18 59
25 70 7 11 16 33 20 50 12 46 76 182 145 307 27 48 96 142 141 191 70 77 202
137 305 139 62 1 68 -1 100 -32 19 -19 35 -42 35 -51 0 -9 -16 -46 -36 -81
-46 -81 -52 -114 -26 -164 27 -53 57 -83 90 -90 15 -3 33 -7 40 -10 27 -8 114
17 147 43 90 71 118 213 60 303 -35 55 -119 126 -160 136 -17 4 -46 16 -66 26
-28 14 -64 20 -155 23 -66 2 -139 0 -164 -4z"/>
<path d="M6178 4070 l3 -370 -1245 0 -1246 0 0 -565 0 -565 383 -1 c210 0 769
-1 1242 -2 l860 -2 3 -295 2 -295 619 619 618 618 -496 492 c-273 270 -552
546 -621 613 l-125 122 3 -369z"/>
</g>
</svg>
