<?xml version="1.0" standalone="no"?>
<!DOCTYPE svg PUBLIC "-//W3C//DTD SVG 20010904//EN"
 "http://www.w3.org/TR/2001/REC-SVG-20010904/DTD/svg10.dtd">
<svg version="1.0" xmlns="http://www.w3.org/2000/svg"
 width="711.000000pt" height="599.000000pt" viewBox="0 0 711.000000 599.000000"
 preserveAspectRatio="xMidYMid meet">

<g transform="translate(0.000000,599.000000) scale(0.100000,-0.100000)"
fill="#000000" stroke="none">
<path d="M6430 5211 c-75 -12 -225 -73 -305 -126 -95 -62 -245 -205 -295 -281
-15 -22 -101 -138 -120 -161 -6 -7 -15 -25 -22 -40 -7 -15 -17 -35 -24 -43
-14 -17 -118 -222 -151 -296 -54 -124 -73 -173 -73 -188 0 -9 -9 -34 -20 -56
-11 -21 -24 -60 -30 -86 -6 -27 -22 -63 -36 -81 l-25 -33 -207 0 c-114 0 -217
-3 -229 -6 -22 -6 -32 -26 -54 -109 -15 -54 -13 -76 4 -87 7 -4 91 -8 188 -8
259 0 272 -5 239 -97 -10 -28 -21 -75 -25 -104 -4 -29 -15 -76 -25 -104 -10
-28 -21 -76 -25 -106 -4 -30 -13 -69 -21 -87 -7 -18 -20 -71 -28 -117 -8 -46
-19 -93 -25 -103 -5 -10 -15 -50 -21 -88 -6 -38 -18 -86 -26 -106 -7 -21 -19
-70 -25 -109 -6 -39 -17 -86 -25 -104 -7 -18 -18 -63 -24 -100 -6 -38 -20 -94
-30 -126 -11 -32 -20 -71 -20 -86 -1 -15 -8 -46 -16 -68 -8 -22 -23 -76 -34
-120 -27 -115 -51 -203 -67 -255 -8 -25 -23 -74 -33 -110 -73 -251 -91 -308
-120 -380 -10 -25 -25 -65 -33 -90 -35 -105 -58 -160 -101 -245 -25 -49 -46
-93 -46 -97 0 -15 -66 -103 -114 -152 -62 -63 -133 -111 -176 -121 -18 -4 -51
-16 -74 -26 -42 -19 -169 -26 -193 -11 -23 15 -26 59 -5 78 89 83 105 148 51
209 -46 52 -118 71 -193 51 -165 -43 -229 -228 -118 -343 59 -60 139 -95 246
-104 114 -11 254 4 298 31 18 11 40 20 49 20 19 0 129 57 144 75 5 6 36 29 69
51 57 38 183 163 215 214 8 14 34 48 56 76 22 29 49 67 60 85 11 18 30 49 42
69 51 82 192 358 193 375 0 6 8 26 19 45 10 19 24 53 31 75 7 22 16 45 21 51
9 11 50 127 73 204 7 25 20 59 28 75 9 17 19 46 22 65 4 19 15 55 26 80 22 54
48 130 62 185 6 22 21 76 33 120 25 84 49 173 67 240 6 22 19 67 29 101 11 33
24 87 30 120 6 32 19 85 30 116 10 32 19 68 19 81 0 14 11 59 25 101 14 42 25
88 25 101 0 13 7 46 17 72 9 26 24 84 34 128 10 44 24 105 32 135 9 30 18 67
21 82 9 40 53 48 252 48 l170 0 22 30 c29 39 46 118 33 153 l-11 27 -179 0
c-204 0 -208 2 -197 71 4 23 15 60 25 83 10 22 22 59 26 81 4 21 13 51 21 66
7 15 18 49 24 75 5 27 18 69 29 94 10 25 26 68 35 95 45 128 52 146 123 288
66 133 77 152 120 206 104 130 147 166 245 205 46 18 86 27 131 28 57 1 69 -2
101 -28 27 -22 36 -36 36 -59 0 -17 -4 -35 -9 -40 -6 -6 -21 -32 -35 -58 -36
-67 -35 -122 3 -175 35 -48 43 -53 93 -62 96 -18 184 30 233 126 24 48 27 63
23 118 -9 105 -80 185 -218 245 -86 37 -237 50 -360 32z"/>
<path d="M2710 4071 l0 -371 -1240 0 -1240 0 0 -565 0 -565 383 -1 c210 0 768
0 1239 1 l858 1 2 -295 3 -296 618 618 617 617 -620 614 -620 613 0 -371z"/>
</g>
</svg>
