<?xml version="1.0" standalone="no"?>
<!DOCTYPE svg PUBLIC "-//W3C//DTD SVG 20010904//EN"
 "http://www.w3.org/TR/2001/REC-SVG-20010904/DTD/svg10.dtd">
<svg version="1.0" xmlns="http://www.w3.org/2000/svg"
 width="225.000000pt" height="172.000000pt" viewBox="0 0 225.000000 172.000000"
 preserveAspectRatio="xMidYMid meet">
<metadata>
Created by potrace 1.16, written by Peter Selinger 2001-2019
</metadata>
<g transform="translate(0.000000,172.000000) scale(0.100000,-0.100000)"
fill="#000000" stroke="none">
<path d="M1497 1637 c-120 -119 -203 -273 -254 -466 -35 -132 -44 -391 -18
-541 30 -182 91 -332 187 -462 48 -65 151 -168 168 -168 24 0 19 26 -13 58
-161 169 -247 404 -263 722 -18 341 68 640 243 847 29 34 53 65 53 68 0 3 -9
5 -20 5 -12 0 -48 -27 -83 -63z"/>
<path d="M1800 1687 c0 -7 16 -29 36 -48 45 -43 117 -151 149 -222 71 -162
105 -340 105 -557 0 -168 -11 -263 -46 -397 -39 -150 -111 -288 -208 -398 -60
-68 -45 -87 23 -31 280 234 399 717 286 1160 -44 172 -138 339 -255 450 -57
54 -90 70 -90 43z"/>
<path d="M740 1617 c-95 -44 -137 -119 -178 -317 l-27 -135 -80 -5 c-74 -5
-80 -7 -83 -27 -3 -22 0 -23 72 -23 63 0 76 -3 76 -16 0 -19 -112 -618 -141
-753 -23 -111 -54 -186 -83 -206 -22 -16 -83 -20 -105 -6 -10 7 -6 13 17 27
39 23 59 66 46 102 -8 22 -17 28 -47 30 -50 4 -83 -18 -96 -64 -7 -27 -7 -45
3 -68 17 -40 35 -55 88 -71 139 -41 247 97 317 405 11 47 40 198 66 335 25
138 48 258 51 268 5 15 18 17 99 17 83 0 93 2 98 19 3 11 2 22 -1 25 -3 3 -43
6 -88 6 -46 0 -85 4 -88 9 -6 10 37 249 60 328 21 76 77 111 138 87 20 -8 21
-34 2 -34 -22 0 -56 -49 -56 -81 0 -32 31 -59 68 -59 13 0 37 13 53 29 58 58
31 148 -54 180 -36 14 -95 13 -127 -2z"/>
</g>
</svg>
