<?xml version="1.0" standalone="no"?>
<!DOCTYPE svg PUBLIC "-//W3C//DTD SVG 20010904//EN"
 "http://www.w3.org/TR/2001/REC-SVG-20010904/DTD/svg10.dtd">
<svg version="1.0" xmlns="http://www.w3.org/2000/svg"
 width="503.000000pt" height="517.000000pt" viewBox="0 0 503.000000 517.000000"
 preserveAspectRatio="xMidYMid meet">
<metadata>
Created by potrace 1.16, written by Peter Selinger 2001-2019
</metadata>
<g transform="translate(0.000000,517.000000) scale(0.100000,-0.100000)"
fill="#000000" stroke="none">
<path d="M3210 4920 c-398 -99 -778 -502 -945 -1005 -51 -152 -99 -357 -124
-521 -12 -76 -24 -151 -26 -167 l-5 -28 156 3 155 3 38 91 c183 443 521 690
851 620 377 -80 673 -513 754 -1104 20 -142 21 -431 2 -572 -53 -392 -195
-712 -407 -915 -100 -96 -176 -144 -284 -180 -99 -34 -225 -38 -325 -11 -219
59 -419 250 -553 528 l-42 88 -102 0 c-63 0 -103 -4 -103 -10 0 -26 88 -248
142 -358 249 -506 617 -781 979 -732 219 30 420 156 595 373 487 607 659 1735
409 2692 -162 621 -486 1080 -850 1205 -75 26 -210 26 -315 0z"/>
<path d="M4089 4617 c494 -653 656 -1811 390 -2790 -53 -196 -96 -310 -184
-492 -121 -250 -262 -441 -421 -574 -208 -173 -388 -239 -623 -228 -135 6
-214 27 -341 93 -115 59 -199 125 -308 239 -193 201 -341 472 -477 873 -2 6
-9 12 -15 12 -15 0 -9 -27 40 -201 167 -590 491 -1047 872 -1229 126 -61 206
-81 344 -87 91 -4 141 -1 204 11 581 118 1058 833 1194 1791 54 375 48 830
-14 1195 -97 570 -306 1034 -615 1368 -79 86 -105 96 -46 19z"/>
<path d="M3160 3340 l0 -360 -1465 0 -1465 0 0 -510 0 -510 1465 0 1465 0 0
-310 c0 -289 1 -310 18 -310 9 0 136 111 282 246 299 276 288 261 340 469 87
343 75 722 -32 1045 l-31 94 -245 253 -245 253 -44 0 -43 0 0 -360z"/>
</g>
</svg>
