<?xml version="1.0" standalone="no"?>
<!DOCTYPE svg PUBLIC "-//W3C//DTD SVG 20010904//EN"
 "http://www.w3.org/TR/2001/REC-SVG-20010904/DTD/svg10.dtd">
<svg version="1.0" xmlns="http://www.w3.org/2000/svg"
 width="112.000000pt" height="130.000000pt" viewBox="0 0 112.000000 130.000000"
 preserveAspectRatio="xMidYMid meet">
<metadata>
Created by potrace 1.16, written by Peter Selinger 2001-2019
</metadata>
<g transform="translate(0.000000,130.000000) scale(0.100000,-0.100000)"
fill="#000000" stroke="none">
<path d="M380 1225 c0 -8 15 -21 34 -29 23 -9 42 -28 54 -53 24 -46 192 -515
192 -535 0 -8 -108 -119 -240 -247 -132 -128 -243 -244 -246 -256 -10 -42 4
-65 39 -65 29 0 43 12 122 107 224 266 338 394 348 390 5 -1 45 -101 88 -222
43 -120 86 -230 97 -244 15 -21 29 -27 67 -29 73 -5 81 1 56 42 -11 18 -41 91
-66 162 -25 71 -56 158 -70 194 -38 104 -211 590 -232 649 -33 98 -104 151
-205 151 -27 0 -38 -4 -38 -15z"/>
</g>
</svg>
