<?xml version="1.0" standalone="no"?>
<!DOCTYPE svg PUBLIC "-//W3C//DTD SVG 20010904//EN"
 "http://www.w3.org/TR/2001/REC-SVG-20010904/DTD/svg10.dtd">
<svg version="1.0" xmlns="http://www.w3.org/2000/svg"
 width="642.000000pt" height="865.000000pt" viewBox="0 0 642.000000 865.000000"
 preserveAspectRatio="xMidYMid meet">

<g transform="translate(0.000000,865.000000) scale(0.100000,-0.100000)"
fill="#000000" stroke="none">
<path d="M1022 8639 c-122 -16 -293 -72 -402 -132 -552 -305 -773 -978 -506
-1543 246 -520 818 -785 1376 -638 99 26 268 101 342 152 l43 29 560 -675
c308 -371 561 -678 563 -682 1 -4 -167 -71 -374 -150 -364 -139 -378 -143
-391 -125 -7 11 -40 61 -72 110 -167 254 -434 433 -750 501 -97 21 -328 24
-431 5 -243 -44 -464 -162 -640 -340 -454 -462 -452 -1197 5 -1656 364 -365
894 -455 1361 -230 169 82 344 233 447 387 41 62 56 77 72 73 32 -7 745 -299
745 -305 0 -4 -1051 -1224 -1085 -1259 -12 -12 -21 -9 -62 17 -84 54 -236 121
-334 146 -557 147 -1129 -118 -1375 -638 -216 -457 -116 -1002 248 -1352 555
-534 1453 -409 1843 256 120 205 175 453 154 694 -5 59 -10 111 -12 117 -2 10
301 123 1630 611 l232 85 46 -69 c57 -86 187 -223 275 -289 90 -69 285 -163
400 -194 545 -144 1111 110 1364 613 323 643 -8 1433 -693 1653 -304 97 -634
69 -910 -77 -45 -24 -87 -42 -92 -39 -4 3 -116 136 -248 294 l-239 289 215
248 c118 137 226 262 242 277 l27 28 75 -40 c174 -94 313 -131 519 -138 174
-6 286 8 419 53 346 116 632 399 745 736 50 147 60 212 60 388 0 145 -3 178
-27 271 -184 742 -997 1124 -1672 787 -168 -84 -325 -214 -420 -347 -40 -55
-54 -68 -70 -64 -36 10 -1870 744 -1877 751 -4 4 -2 30 3 57 14 68 14 285 0
366 -106 637 -690 1071 -1329 988z m384 -299 c334 -86 590 -358 659 -699 23
-113 16 -315 -14 -416 -60 -201 -197 -391 -360 -501 -71 -48 -200 -108 -276
-129 -83 -23 -286 -31 -383 -15 -466 75 -804 528 -743 995 54 405 363 721 766
785 86 13 260 3 351 -20z m1787 -1776 c504 -201 917 -367 917 -368 0 -2 -9
-38 -20 -82 -38 -147 -43 -324 -15 -514 l7 -46 -391 -148 -390 -148 -24 28
c-195 231 -1170 1412 -1174 1421 -2 6 17 40 42 75 26 34 58 85 72 111 18 37
28 47 41 42 9 -3 430 -170 935 -371z m1022 -1331 c11 -21 48 -75 83 -121 34
-45 60 -87 57 -92 -14 -22 -426 -495 -434 -498 -8 -3 -411 476 -411 488 0 7
648 257 670 259 9 0 24 -16 35 -36z m-2930 -14 c364 -43 664 -300 767 -654 20
-69 23 -103 23 -240 0 -137 -3 -171 -23 -239 -156 -540 -746 -811 -1251 -575
-140 65 -275 179 -361 304 -48 69 -108 202 -131 290 -31 114 -31 326 0 440 26
98 87 228 145 310 49 67 150 166 221 215 108 75 268 133 405 150 96 11 107 11
205 -1z m2127 -566 c113 -137 228 -276 256 -309 l52 -61 -237 -274 c-130 -151
-251 -291 -269 -311 l-33 -37 -420 173 c-232 95 -424 175 -427 179 -4 3 -1 35
6 69 21 107 28 238 18 343 -5 55 -10 110 -11 123 -2 22 26 34 423 187 234 90
428 163 431 164 4 1 99 -110 211 -246z m716 -864 c112 -134 212 -256 222 -270
l19 -26 -55 -69 c-31 -38 -69 -93 -86 -122 -22 -37 -36 -52 -47 -49 -31 9
-686 279 -694 286 -9 9 414 502 428 498 5 -2 101 -113 213 -248z m-475 -645
c210 -86 394 -162 409 -170 24 -12 26 -17 18 -46 -31 -111 -30 -331 0 -486 7
-34 11 -64 9 -67 -4 -4 -1803 -665 -1830 -672 -10 -3 -21 9 -35 39 -10 23 -43
76 -72 117 -29 40 -52 79 -50 86 3 10 1159 1354 1166 1355 2 0 175 -70 385
-156z m-2238 -1089 c77 -21 206 -82 276 -129 163 -110 300 -300 360 -501 30
-101 37 -303 15 -415 -55 -269 -218 -491 -456 -618 -525 -283 -1162 7 -1307
594 -25 103 -22 314 6 419 43 161 147 335 262 440 115 103 273 186 422 220 84
19 339 13 422 -10z"/>
</g>
</svg>
