<?xml version="1.0" standalone="no"?>
<!DOCTYPE svg PUBLIC "-//W3C//DTD SVG 20010904//EN"
 "http://www.w3.org/TR/2001/REC-SVG-20010904/DTD/svg10.dtd">
<svg version="1.0" xmlns="http://www.w3.org/2000/svg"
 width="546.000000pt" height="517.000000pt" viewBox="0 0 546.000000 517.000000"
 preserveAspectRatio="xMidYMid meet">
<metadata>
Created by potrace 1.16, written by Peter Selinger 2001-2019
</metadata>
<g transform="translate(0.000000,517.000000) scale(0.100000,-0.100000)"
fill="#000000" stroke="none">
<path d="M1277 4870 c-150 -64 -324 -199 -452 -352 -265 -314 -454 -760 -545
-1283 -62 -359 -68 -821 -15 -1200 109 -769 449 -1408 892 -1671 170 -101 319
-140 507 -131 142 7 208 23 333 82 272 128 512 385 688 735 50 100 54 120 7
36 -90 -159 -288 -376 -429 -469 -160 -106 -298 -149 -478 -149 -237 0 -428
83 -632 275 -568 538 -822 1699 -606 2767 83 412 249 797 458 1065 76 98 209
225 295 283 73 49 70 51 -23 12z"/>
<path d="M1695 4894 c-224 -46 -399 -153 -559 -344 -267 -317 -447 -781 -523
-1350 -26 -193 -26 -727 0 -920 97 -724 365 -1284 742 -1552 503 -358 1085
-43 1404 760 38 95 111 321 111 343 0 6 -51 8 -132 7 l-132 -3 -21 -55 c-94
-241 -269 -474 -428 -569 -329 -195 -682 -86 -933 290 -137 205 -223 453 -264
762 -17 134 -12 425 10 580 72 485 300 873 602 1021 350 173 732 -19 958 -479
l52 -105 179 0 179 0 0 26 c0 15 -11 81 -25 148 -116 575 -411 1080 -770 1318
-115 77 -170 102 -251 117 -56 11 -158 13 -199 5z"/>
<path d="M3898 3469 l3 -399 -1325 0 -1324 0 -11 -32 c-37 -117 -71 -362 -71
-509 0 -148 36 -430 59 -468 6 -9 336 -12 1337 -14 l1329 -2 5 -323 5 -322
355 357 c195 197 472 476 615 620 l260 263 -205 206 c-113 113 -392 389 -620
613 l-415 409 3 -399z"/>
</g>
</svg>
