<?xml version="1.0" standalone="no"?>
<!DOCTYPE svg PUBLIC "-//W3C//DTD SVG 20010904//EN"
 "http://www.w3.org/TR/2001/REC-SVG-20010904/DTD/svg10.dtd">
<svg version="1.0" xmlns="http://www.w3.org/2000/svg"
 width="512.000000pt" height="512.000000pt" viewBox="0 0 512.000000 512.000000"
 preserveAspectRatio="xMidYMid meet">
<metadata>
Created by potrace 1.16, written by Peter Selinger 2001-2019
</metadata>
<g transform="translate(0.000000,512.000000) scale(0.100000,-0.100000)"
fill="#000000" stroke="none">
<path d="M2022 5101 c-40 -10 -112 -38 -160 -61 -72 -36 -104 -60 -183 -139
-82 -82 -102 -110 -141 -191 -72 -148 -78 -185 -78 -488 l0 -261 568 -3 c547
-3 568 -4 600 -23 96 -58 97 -189 2 -248 l-35 -22 -1000 -5 c-1118 -6 -1031
-1 -1195 -81 -70 -35 -102 -60 -181 -138 -81 -82 -102 -110 -141 -191 -79
-162 -80 -166 -76 -720 l3 -485 28 -74 c46 -126 93 -199 191 -296 72 -72 109
-99 176 -133 146 -73 203 -82 501 -82 l257 0 4 393 c4 340 7 399 23 447 61
192 191 322 385 386 51 17 120 19 991 24 l936 5 49 30 c30 19 60 49 79 79 l30
49 3 801 c3 908 5 875 -80 1046 -34 69 -60 103 -138 180 -77 78 -111 104 -180
138 -161 80 -180 82 -704 81 -408 0 -469 -3 -534 -18z m262 -470 c43 -29 66
-70 66 -121 0 -142 -182 -193 -261 -74 -23 35 -25 104 -4 145 34 65 137 91
199 50z"/>
<path d="M3958 3268 c-4 -341 -7 -400 -23 -448 -61 -192 -191 -322 -385 -386
-51 -17 -120 -19 -991 -24 l-936 -5 -49 -30 c-30 -19 -60 -49 -79 -79 l-30
-49 -3 -801 c-3 -907 -6 -868 76 -1036 39 -82 59 -108 141 -190 78 -78 112
-104 181 -138 160 -80 180 -82 700 -82 520 0 540 2 700 82 69 34 103 60 180
138 78 77 104 111 138 180 73 146 82 203 82 501 l0 258 -567 3 c-548 3 -569 4
-601 23 -45 27 -72 73 -72 124 0 55 21 94 67 123 l38 23 1000 5 1000 5 77 26
c126 43 204 93 303 193 72 72 99 109 133 176 80 160 82 180 82 704 0 524 -2
537 -82 696 -34 69 -61 103 -138 180 -77 78 -111 104 -180 138 -146 73 -204
82 -501 82 l-257 0 -4 -392z m-974 -2537 c43 -29 66 -70 66 -121 0 -142 -182
-193 -261 -74 -23 35 -25 104 -4 143 33 65 137 92 199 52z"/>
</g>
</svg>
