<?xml version="1.0" standalone="no"?>
<!DOCTYPE svg PUBLIC "-//W3C//DTD SVG 20010904//EN"
 "http://www.w3.org/TR/2001/REC-SVG-20010904/DTD/svg10.dtd">
<svg version="1.0" xmlns="http://www.w3.org/2000/svg"
 width="522.000000pt" height="350.000000pt" viewBox="0 0 522.000000 350.000000"
 preserveAspectRatio="xMidYMid meet">
<metadata>
Created by potrace 1.16, written by Peter Selinger 2001-2019
</metadata>
<g transform="translate(0.000000,350.000000) scale(0.100000,-0.100000)"
fill="#000000" stroke="none">
<path d="M4441 3288 c-77 -117 -479 -733 -894 -1368 l-755 -1155 -1396 -3
-1396 -2 0 -380 0 -380 1609 0 c1278 0 1610 3 1614 13 2 6 451 696 997 1531
546 836 995 1527 997 1535 3 12 -84 73 -303 216 -169 110 -313 201 -320 203
-8 2 -71 -84 -153 -210z"/>
</g>
</svg>
