<?xml version="1.0" standalone="no"?>
<!DOCTYPE svg PUBLIC "-//W3C//DTD SVG 20010904//EN"
 "http://www.w3.org/TR/2001/REC-SVG-20010904/DTD/svg10.dtd">
<svg version="1.0" xmlns="http://www.w3.org/2000/svg"
 width="512.000000pt" height="512.000000pt" viewBox="0 0 512.000000 512.000000"
 preserveAspectRatio="xMidYMid meet">
<metadata>
Created by potrace 1.16, written by Peter Selinger 2001-2019
</metadata>
<g transform="translate(0.000000,512.000000) scale(0.100000,-0.100000)"
fill="#000000" stroke="none">
<path d="M759 3892 c-39 -20 -62 -41 -84 -77 -27 -44 -30 -56 -30 -135 0 -79
3 -91 30 -135 22 -36 45 -57 84 -77 l53 -28 1748 0 1748 0 53 28 c39 20 62 41
84 77 27 44 30 56 30 135 0 79 -3 91 -30 135 -22 36 -45 57 -84 77 l-53 28
-1748 0 -1748 0 -53 -28z"/>
<path d="M759 2772 c-39 -20 -62 -41 -84 -77 -27 -44 -30 -56 -30 -135 0 -79
3 -91 30 -135 22 -36 45 -57 84 -77 l53 -28 1748 0 1748 0 53 28 c39 20 62 41
84 77 27 44 30 56 30 135 0 79 -3 91 -30 135 -22 36 -45 57 -84 77 l-53 28
-1748 0 -1748 0 -53 -28z"/>
<path d="M759 1652 c-39 -20 -62 -41 -84 -77 -27 -44 -30 -56 -30 -135 0 -79
3 -91 30 -135 22 -36 45 -57 84 -77 l53 -28 1748 0 1748 0 53 28 c39 20 62 41
84 77 27 44 30 56 30 135 0 79 -3 91 -30 135 -22 36 -45 57 -84 77 l-53 28
-1748 0 -1748 0 -53 -28z"/>
</g>
</svg>
